PathFileType	4	(X/Y/Z)	./resultDataOpenSim/trcMotMarkerGrf/sub06/qtm-15-01.trc
DataRate	CameraRate	NumFrames	NumMarkers	Units	OrigDataRate	OrigDataStartFrame	OrigNumFrames
250.000000	250.000000	13	24	m	250.000000	257	513
Frame#	Time	L.Toe.Tip			R.Toe.Tip			L.Ankle.Lat			R.Ankle.Lat			L.Ankle.Med			R.Ankle.Med			L.Heel			R.Heel			L.Knee.Lat			R.Knee.Lat			L.Knee.Med			R.Knee.Med			L.Thigh.Upper			R.Thigh.Upper			L.ASIS			R.ASIS			V.Sacral			L.Acromium			R.Acromium			C7			L.Elbow			R.Elbow			L.Wrist.Lat			R.Wrist.Lat
		X1	Y1	Z1	X2	Y2	Z2	X3	Y3	Z3	X4	Y4	Z4	X5	Y5	Z5	X6	Y6	Z6	X7	Y7	Z7	X8	Y8	Z8	X9	Y9	Z9	X10	Y10	Z10	X11	Y11	Z11	X12	Y12	Z12	X13	Y13	Z13	X14	Y14	Z14	X15	Y15	Z15	X16	Y16	Z16	X17	Y17	Z17	X18	Y18	Z18	X19	Y19	Z19	X20	Y20	Z20	X21	Y21	Z21	X22	Y22	Z22	X23	Y23	Z23	X24	Y24	Z24

257	1.024	0.18245619	-0.061689824	-0.0093678879	0.99629288	0.080072481	0.056003091	0.10572194	0.026215438	-0.065054217	0.85735625	0.077626123	0.09034206	0.11239222	0.047430827	0.01835998	0.87040281	0.11195983	0.0073941332	0.03073479	0.043851548	-0.023546579	0.81098231	0.049600659	0.029288538	0.31356471	0.34509997	-0.084494242	0.7798912	0.4583405	0.13433346	0.30751891	0.35155846	0.038353147	0.75856885	0.44534411	0.01195442	0.40718602	0.71417302	-0.14254863	0.53792958	0.73057677	0.18726341	0.50234276	0.76134707	-0.12982783	0.59507214	0.7799874	0.10210083	0.38126532	0.8428532	0.052117532	0.58273657	1.2522002	-0.15972474	0.56035586	1.2278157	0.19445502	0.49657838	1.2830153	0.010291734	0.71023907	0.95112105	-0.22308323	0.32782403	1.0258047	0.24919119	0.9426359	1.0192084	-0.14658429	0.27010474	0.8223491	0.35763938
258	1.028	0.18271794	-0.061614375	-0.0094848402	0.99930733	0.074118088	0.054709681	0.10805803	0.027307351	-0.065795281	0.86068985	0.07275512	0.089637523	0.11532972	0.048554463	0.017508633	0.87356965	0.10695976	0.0067638109	0.033743432	0.046177257	-0.024149834	0.81377919	0.045085846	0.028880021	0.31963699	0.34395734	-0.085610707	0.78693991	0.45475197	0.13320779	0.31426817	0.35042499	0.037411309	0.76552133	0.44200134	0.010852666	0.41411799	0.71306403	-0.14242691	0.54770782	0.7293072	0.18638794	0.50974524	0.76009539	-0.13036425	0.60425016	0.77815566	0.10060876	0.38955363	0.84149012	0.052834482	0.59032909	1.2511006	-0.15933257	0.56833088	1.2259981	0.19487018	0.50459313	1.2816339	0.010788083	0.71918653	0.95062458	-0.22223348	0.33532867	1.0246189	0.24947168	0.95075936	1.0204661	-0.1447286	0.27729243	0.82140248	0.35808627
259	1.032	0.18302657	-0.061533256	-0.0095797094	1.0022283	0.067820766	0.05348253	0.11046326	0.028374302	-0.066517636	0.86382654	0.067690262	0.089066368	0.11838273	0.0496558	0.016657036	0.87666879	0.1018098	0.0061182175	0.036883182	0.04855385	-0.024731688	0.81633932	0.040750207	0.028594744	0.32586937	0.34269521	-0.086806368	0.79383969	0.45100565	0.13208629	0.32109327	0.34921492	0.036429336	0.77227443	0.43840257	0.0096173772	0.42108734	0.71191309	-0.14230649	0.55753144	0.72806304	0.1855395	0.51725437	0.75878893	-0.13094407	0.61346241	0.77628832	0.099085245	0.39799796	0.84007293	0.053522289	0.59793728	1.2499652	-0.15890218	0.57633981	1.2241475	0.19529101	0.51264689	1.2801887	0.011302177	0.72804981	0.95006264	-0.22142759	0.3429572	1.0233507	0.24976953	0.95879669	1.021565	-0.1428965	0.28473812	0.82031525	0.35853373
260	1.036	0.18338881	-0.061464695	-0.0096515361	1.0053962	0.06106743	0.052354182	0.11294716	0.029394249	-0.067184015	0.86697852	0.062673494	0.088421563	0.12156872	0.050723614	0.015790381	0.8799803	0.096681105	0.0051047332	0.040123859	0.051039888	-0.025268112	0.81873599	0.037264233	0.028214615	0.33228301	0.34131839	-0.088026245	0.80054667	0.44703514	0.13103445	0.32809776	0.34785753	0.035388968	0.77878681	0.43452718	0.0083273425	0.42810299	0.71071856	-0.14218885	0.56732993	0.72678415	0.18465479	0.52486181	0.75743424	-0.1315599	0.62267247	0.77437693	0.097549459	0.40669245	0.83857333	0.054094713	0.60555338	1.2487944	-0.15842833	0.58437615	1.2222554	0.19571269	0.52069947	1.2786965	0.011880197	0.73682391	0.9494344	-0.22067588	0.35069136	1.0220039	0.25007308	0.96675202	1.0225035	-0.14108712	0.29236123	0.81907577	0.35897108
261	1.04	0.18380801	-0.061433374	-0.0096907831	1.0092613	0.054017963	0.051405935	0.11551524	0.030344672	-0.067784316	0.87050103	0.058263071	0.087345503	0.12489993	0.051753019	0.014902094	0.88392961	0.091904972	0.0032762131	0.043490792	0.053627994	-0.025762973	0.82118131	0.035304038	0.027369838	0.33887467	0.33983959	-0.089251943	0.80702243	0.44274928	0.13015962	0.33532648	0.34631638	0.034290799	0.78501977	0.43033265	0.0071618935	0.43517583	0.70946748	-0.1420561	0.57709874	0.72542525	0.18370743	0.53254395	0.75601915	-0.13221055	0.63175599	0.77241371	0.09600281	0.4156199	0.83700674	0.054506041	0.6131688	1.2475885	-0.15790963	0.59244301	1.2203208	0.19613719	0.52866673	1.2772276	0.012655243	0.74550003	0.94874868	-0.21999085	0.35852843	1.020566	0.25037487	0.97462718	1.0232867	-0.13930765	0.30009959	0.81768097	0.35939035
262	1.044	0.18429342	-0.061458759	-0.0096878223	1.0139497	0.047407599	0.050685605	0.11817563	0.031232309	-0.068376927	0.87463106	0.055152681	0.08555551	0.1283849	0.052744413	0.013990515	0.8886566	0.087815232	0.00046885274	0.047036491	0.056266574	-0.026261977	0.82381512	0.035001248	0.025817321	0.34562962	0.33827054	-0.090506209	0.81332912	0.43817571	0.12948598	0.34276575	0.34457937	0.033149554	0.79096348	0.42577509	0.0063617749	0.44232395	0.70814083	-0.1418748	0.58683603	0.72394173	0.18269671	0.54021077	0.75451588	-0.13284042	0.64053516	0.77039901	0.094426964	0.42453401	0.83546547	0.054862524	0.62077565	1.2463526	-0.15734974	0.60054851	1.2183491	0.19656808	0.53646579	1.2758747	0.013785061	0.75407086	0.94802618	-0.21937947	0.36648948	1.0190115	0.2506777	0.98241639	1.0239173	-0.13756169	0.30792021	0.81612834	0.35978947
263	1.048	0.18484474	-0.061541163	-0.009660477	1.0187335	0.042349817	0.050029631	0.12096918	0.032096115	-0.069049941	0.87904084	0.053719786	0.083175174	0.1320361	0.053695986	0.013047244	0.89348904	0.084567056	-0.0029134525	0.050803925	0.058919863	-0.0268126	0.82640774	0.035759592	0.023760383	0.35253288	0.33661738	-0.091812292	0.81976984	0.43374631	0.1288334	0.35038165	0.34264218	0.0319759	0.79665975	0.42089788	0.0061412741	0.4495713	0.70672137	-0.14161766	0.59646635	0.72229914	0.18163475	0.5476742	0.75289783	-0.13328283	0.64886803	0.7683501	0.092797313	0.43302929	0.83409273	0.055378934	0.62836825	1.2450988	-0.15675716	0.60869901	1.216346	0.19700447	0.54412193	1.2746511	0.015264212	0.76253445	0.94729393	-0.21883783	0.37459455	1.0173243	0.25099118	0.99011374	1.0243884	-0.13584634	0.31580582	0.81441943	0.3601655
264	1.052	0.18543407	-0.061661137	-0.0096617578	1.0223012	0.039496624	0.049039417	0.12396402	0.032985087	-0.069866465	0.88273971	0.053754525	0.080812632	0.13587414	0.054607475	0.012053057	0.89719612	0.082204273	-0.0060713852	0.05482086	0.061600262	-0.027435512	0.82847077	0.036717117	0.0218026	0.359574	0.33488552	-0.093168236	0.8268842	0.43039994	0.12792442	0.35815118	0.34051999	0.030750046	0.80223515	0.4160209	0.0065848159	0.45692966	0.70520038	-0.14129681	0.6058637	0.72053793	0.18057739	0.55475934	0.75116284	-0.13334403	0.65671805	0.76630266	0.091113701	0.44090301	0.83297378	0.056132101	0.63594403	1.2438424	-0.15614441	0.61689556	1.2143137	0.19743763	0.5517965	1.2734426	0.016836963	0.77088891	0.94655174	-0.21835139	0.38284038	1.0155094	0.25131977	0.99772227	1.0246919	-0.13416535	0.32378642	0.81256954	0.36051809
265	1.056	0.18601214	-0.061803025	-0.0097553654	1.0239853	0.038425715	0.047432981	0.12719229	0.033940081	-0.070834063	0.88481134	0.054710424	0.079142565	0.13992276	0.055497242	0.010984628	0.89909686	0.080857287	-0.0082985065	0.059113583	0.064358914	-0.028139349	0.82972417	0.03735395	0.020542873	0.36675493	0.33308931	-0.09457075	0.83516308	0.42915616	0.12663605	0.36609379	0.3382495	0.029409977	0.80791704	0.4119035	0.0075181564	0.46437787	0.70358105	-0.1409795	0.61496037	0.71884911	0.1796597	0.56152537	0.74935081	-0.13301746	0.66415675	0.76430265	0.089431984	0.44836776	0.83208321	0.056920371	0.64350457	1.2425969	-0.15552616	0.62513886	1.2122508	0.19785335	0.55964091	1.2721129	0.018206686	0.77912684	0.94575483	-0.21790016	0.39120932	1.0135849	0.25165827	1.0052468	1.024829	-0.1325297	0.33194379	0.81060141	0.36085652
266	1.06	0.18652668	-0.061970029	-0.0099887733	1.0244142	0.038074326	0.045496317	0.13061744	0.034986241	-0.071888804	0.88532333	0.05614308	0.078364466	0.14419218	0.056413145	0.009820776	0.89966561	0.080649613	-0.0093575132	0.063705903	0.067255226	-0.028941304	0.83032045	0.037644064	0.020177648	0.37409753	0.33125526	-0.096042901	0.84470495	0.43040846	0.12506017	0.37427868	0.33585713	0.027890432	0.81396993	0.40955326	0.008432835	0.47186137	0.70188224	-0.14076519	0.62381319	0.71756273	0.17905851	0.56828747	0.74753012	-0.13255346	0.67131605	0.76239401	0.087862338	0.45575561	0.83138656	0.057424142	0.65105366	1.2413726	-0.15491891	0.63343496	1.2101564	0.19823973	0.56764309	1.2706363	0.019268493	0.78723854	0.94485405	-0.21747325	0.39968488	1.0115729	0.25199773	1.0126826	1.0248063	-0.13094618	0.3403572	0.80853329	0.36119772
267	1.064	0.1869523	-0.062161391	-0.010370307	1.0246201	0.037700818	0.043998767	0.13419088	0.036136709	-0.072960703	0.8852581	0.057798235	0.078144955	0.14866609	0.057420656	0.0085495053	0.89989779	0.081378539	-0.0095172921	0.068594601	0.070326394	-0.029870084	0.83063317	0.037787645	0.020416605	0.38163823	0.32941058	-0.097619894	0.8551861	0.43365599	0.12331908	0.38276787	0.3333516	0.026176193	0.82057702	0.40960205	0.0086619357	0.47931541	0.70014159	-0.1407408	0.63252347	0.71698564	0.1788797	0.57532854	0.74575444	-0.13223168	0.67833464	0.76060845	0.086521198	0.46314697	0.83093245	0.057418425	0.65860015	1.2401752	-0.1543425	0.64179014	1.2080363	0.19859228	0.57566995	1.2690902	0.020084267	0.79522039	0.94383816	-0.2170786	0.40825208	1.0094943	0.25233058	1.0200209	1.0246295	-0.12941694	0.34906444	0.80637765	0.36155713
268	1.068	0.18734211	-0.062334475	-0.010846799	1.0249957	0.037237028	0.0434581	0.13791547	0.037402154	-0.074064429	0.88555576	0.059394845	0.078026786	0.15331263	0.058570904	0.0071813311	0.90043954	0.082504708	-0.0092990983	0.073739352	0.073575085	-0.03095023	0.8309606	0.037945296	0.020771408	0.38941745	0.32756715	-0.099328046	0.86611028	0.4378983	0.12143381	0.39154577	0.3307667	0.024296303	0.82775659	0.41182428	0.0077654523	0.48669693	0.69840772	-0.14094479	0.64108745	0.71718319	0.17907771	0.58266526	0.7440332	-0.13212371	0.68533045	0.75896523	0.085474939	0.47039402	0.83077228	0.056886391	0.66616805	1.2389992	-0.15381793	0.65020379	1.2059046	0.1989117	0.58364449	1.2675555	0.020758995	0.80307698	0.94272254	-0.21673384	0.41689379	1.0073599	0.25265235	1.0272606	1.0243009	-0.12794639	0.35807267	0.80414182	0.36194125
269	1.072	0.18784589	-0.062393668	-0.011326693	1.025423	0.036869299	0.043609641	0.14182929	0.038800069	-0.075250349	0.88641187	0.060581469	0.077752493	0.15810876	0.059877474	0.0057542044	0.90140115	0.083522398	-0.0091478313	0.079084401	0.076977194	-0.032176391	0.83140147	0.038161398	0.02092357	0.39747473	0.32571684	-0.10119061	0.87700867	0.44217376	0.11940752	0.40050898	0.32816887	0.0222943	0.83537335	0.41534223	0.0057623337	0.49400419	0.69672063	-0.14134607	0.64934579	0.71791263	0.17948363	0.59010854	0.74233994	-0.13210272	0.6923876	0.75747727	0.084719385	0.47734926	0.83082404	0.056098286	0.67379234	1.2378249	-0.15336045	0.65867051	1.2037799	0.19919915	0.59161896	1.266071	0.021388333	0.81081454	0.94152059	-0.21645052	0.42559787	1.0051658	0.25296157	1.0344082	1.0238136	-0.12653973	0.3673632	0.80182187	0.36234687
